<svg width="48" height="48" viewBox="0 0 48 48" fill="none" xmlns="http://www.w3.org/2000/svg">
<path fill-rule="evenodd" clip-rule="evenodd" d="M24.9533 9.09146C24.2825 7.59744 25.5669 5.99592 27.1473 6.2749C35.5877 7.76482 41.9995 15.1317 41.9995 24.0002C41.9995 33.9414 33.9405 42.0002 23.9995 42.0002C15.1309 42.0002 7.76402 35.5886 6.2741 27.1482C5.99508 25.5676 7.59674 24.2834 9.09066 24.9542C10.5866 25.6256 12.2466 26.0002 13.9994 26.0002C20.6269 26.0002 25.9995 20.6276 25.9995 14.0002C25.9995 12.2474 25.6249 10.5874 24.9533 9.09146ZM29.7613 11.2365C29.9179 12.1349 29.9995 13.0585 29.9995 14.0002C29.9995 22.8368 22.8359 30.0002 13.9994 30.0002C13.0577 30.0002 12.1341 29.9186 11.2357 29.7622C13.4322 34.62 18.3224 38.0002 23.9995 38.0002C31.7313 38.0002 37.9995 31.7322 37.9995 24.0002C37.9995 18.3232 34.6191 13.433 29.7613 11.2365ZM11.1292 15.4315L11.2567 15.7101C11.8022 16.8387 12.6616 17.7861 13.7315 18.4387L13.9302 18.5551C14.0225 18.607 14.0225 18.7399 13.9302 18.7919L13.7315 18.9083C12.6616 19.5609 11.8022 20.5082 11.2567 21.6368L11.1292 21.9154C11.0792 22.0278 10.9197 22.0278 10.8697 21.9154L10.7422 21.6368C10.1967 20.5082 9.33726 19.5609 8.26734 18.9083L8.06866 18.7919C7.97636 18.7399 7.97636 18.607 8.06866 18.5551L8.26734 18.4387C9.33726 17.7861 10.1967 16.8387 10.7422 15.7101L10.8697 15.4315C10.9197 15.3191 11.0792 15.3191 11.1292 15.4315ZM16.7928 5.71476C16.8723 5.53584 17.1262 5.53584 17.2057 5.71476L17.4087 6.15828C18.277 7.95472 19.645 9.4627 21.3481 10.5014L21.6643 10.6867C21.8111 10.7694 21.8111 10.981 21.6643 11.0636L21.3481 11.2489C19.645 12.2876 18.277 13.7956 17.4087 15.5921C17.3379 15.7385 17.2718 15.887 17.2057 16.0356C17.1262 16.2145 16.8723 16.2145 16.7928 16.0356L16.5898 15.5921C15.7215 13.7956 14.3535 12.2876 12.6505 11.2489L12.3342 11.0636C12.1873 10.981 12.1873 10.7694 12.3342 10.6867L12.6505 10.5014C14.3535 9.4627 15.7215 7.95472 16.5898 6.15828L16.7928 5.71476Z" fill="currentColor"/>
</svg>
