<svg width="48" height="48" viewBox="0 0 48 48" fill="none" xmlns="http://www.w3.org/2000/svg">
<path fill-rule="evenodd" clip-rule="evenodd" d="M23.0009 4C15.8771 4 10.0917 9.72982 10.0019 16.8322C6.8339 18.2157 4.5222 21.191 4.07808 24.7526C3.9414 25.8486 4.71914 26.848 5.81522 26.9846C6.9113 27.1214 7.91066 26.3436 8.04734 25.2474C8.35496 22.7806 10.1675 20.7724 12.5378 20.1792C13.511 19.9356 14.1667 19.0094 14.0554 17.9985C14.0194 17.6713 14.0008 17.3382 14.0008 17C14.0008 12.0294 18.0302 8 23.0009 8C27.1527 8 30.6527 10.8133 31.6891 14.641C31.8963 15.4066 32.5315 15.9783 33.3111 16.1065C37.1057 16.7305 40.0009 20.029 40.0009 24C40.0009 24.2714 39.9873 24.539 39.9613 24.8024C39.8521 25.9016 40.6547 26.881 41.7539 26.9902C42.8531 27.0994 43.8325 26.2968 43.9417 25.1976C43.9809 24.8032 44.0009 24.4036 44.0009 24C44.0009 18.4692 40.2609 13.8153 35.1719 12.424C33.3207 7.50308 28.5721 4 23.0009 4ZM6.00068 32C6.00068 30.8954 6.89612 30 8.00068 30H40.0007C41.1053 30 42.0007 30.8954 42.0007 32C42.0007 33.1046 41.1053 34 40.0007 34H8.00068C6.89612 34 6.00068 33.1046 6.00068 32ZM14.0007 40C14.0007 38.8954 14.8961 38 16.0007 38H34.0007C35.1053 38 36.0007 38.8954 36.0007 40C36.0007 41.1046 35.1053 42 34.0007 42H16.0007C14.8961 42 14.0007 41.1046 14.0007 40Z" fill="currentColor"/>
</svg>
