<svg width="48" height="48" viewBox="0 0 48 48" fill="none" xmlns="http://www.w3.org/2000/svg">
<path fill-rule="evenodd" clip-rule="evenodd" d="M28.0011 4C32.7933 4 37.1995 5.68894 40.6449 8.50302L42.6155 10.1125C43.5247 10.8552 42.9365 12.3271 41.7657 12.2384L39.2287 12.0463C37.7881 11.9372 36.3009 12.0261 34.9117 12.2976C38.0411 15.2169 39.9999 19.3789 39.9999 24C39.9999 35.0456 31.0455 44 19.9999 44C15.2078 44 10.8015 42.311 7.35607 39.497L5.38555 37.8876C4.47617 37.1448 5.06449 35.6728 6.23527 35.7616L8.77227 35.9538C10.2129 36.0628 11.6999 35.974 13.0891 35.7024C9.95947 32.7832 7.99987 28.6214 7.99987 24C7.99987 12.9541 16.9556 4 28.0011 4ZM28.0011 8C19.1644 8 11.9999 15.1636 11.9999 24C11.9999 28.6014 14.5891 32.6012 18.3994 34.6162L19.8366 35.3762C20.7169 35.8418 20.6855 37.1276 19.7821 37.5466C18.3186 38.2252 16.8376 38.8694 15.2836 39.2942C16.7737 39.753 18.3572 40 19.9999 40C28.8365 40 35.9999 32.8366 35.9999 24C35.9999 19.3983 33.4117 15.3987 29.6017 13.3839L28.1643 12.6238C27.2839 12.1583 27.3153 10.8724 28.2189 10.4534C29.6823 9.7748 31.1633 9.13056 32.7173 8.70588C31.2273 8.24702 29.6437 8 28.0011 8ZM23.9995 18C27.3133 18 29.9995 20.6862 29.9995 24C29.9995 27.3138 27.3133 30 23.9995 30C20.6857 30 17.9995 27.3138 17.9995 24C17.9995 20.6862 20.6857 18 23.9995 18ZM23.9995 22C22.8949 22 21.9995 22.8954 21.9995 24C21.9995 25.1046 22.8949 26 23.9995 26C25.1041 26 25.9995 25.1046 25.9995 24C25.9995 22.8954 25.1041 22 23.9995 22Z" fill="currentColor"/>
</svg>
