<svg width="48" height="48" viewBox="0 0 48 48" fill="none" xmlns="http://www.w3.org/2000/svg">
<path fill-rule="evenodd" clip-rule="evenodd" d="M24.8885 8.77475C25.3422 8.18914 26.0825 7.90233 26.8124 8.02937C28.9328 8.39846 30.9109 9.17865 32.6617 10.2835C33.583 9.0436 35.0588 8.24024 36.7222 8.24024C38.6378 8.24024 40.3014 9.30446 41.1593 10.872C42.833 11.6152 44 13.2901 44 15.2402C44 17.7057 42.1325 19.735 39.7348 19.9908C40.0633 21.2782 40.2378 22.6261 40.2378 24.0131C40.2378 32.9737 32.9738 40.2377 24.0132 40.2377C23.8913 40.2377 23.7697 40.2363 23.6484 40.2336C22.4136 41.3307 20.7844 42 19 42H10C6.68629 42 4 39.3137 4 36C4 33.7637 5.2222 31.8161 7.03374 30.784C7.39423 26.9777 10.5994 24 14.5 24C15.9055 24 17.2237 24.3882 18.3493 25.0622C22.5403 23.7031 25.5693 19.7646 25.5693 15.1229C25.5693 13.5864 25.2389 12.1325 24.6471 10.8238C24.3418 10.1488 24.4347 9.36036 24.8885 8.77475ZM21.3298 28.3976C21.3015 28.3354 21.2724 28.2737 21.2425 28.2124C26.1614 25.9088 29.5693 20.9156 29.5693 15.1229C29.5693 14.4182 29.5187 13.7247 29.4209 13.0461C30.483 13.5709 31.4586 14.246 32.32 15.0443C33.4795 16.1188 34.4295 17.4142 35.1032 18.8618C35.8307 20.4248 36.2378 22.1686 36.2378 24.0131C36.2378 30.1175 31.7634 35.1769 25.9153 36.0906C25.9711 35.735 26 35.3708 26 35C26 31.9498 24.0507 29.3579 21.3298 28.3976ZM38.134 16.018H39.2222C39.6518 16.018 40 15.6697 40 15.2402C40 14.8556 39.7188 14.5327 39.3508 14.4727C38.5755 14.3463 37.9461 13.7776 37.7417 13.0191C37.6204 12.569 37.2071 12.2402 36.7222 12.2402C36.3046 12.2402 35.9436 12.4828 35.7725 12.8346C36.6825 13.7916 37.4772 14.8601 38.134 16.018ZM14.5 28C12.567 28 11 29.567 11 31.5C11 31.6344 11.0075 31.7662 11.0219 31.8953C11.1332 32.8921 10.489 33.8172 9.51552 34.0586C8.64403 34.2746 8 35.0646 8 36C8 37.1046 8.89543 38 10 38H19C19.9284 38 20.7571 37.5807 21.3106 36.9137C21.7422 36.3935 22 35.7295 22 35C22 33.5108 20.9129 32.2716 19.4891 32.0393C18.7138 31.9129 18.0843 31.3443 17.8799 30.5858C17.688 29.8737 17.2744 29.2473 16.7132 28.7884C16.1095 28.2947 15.3418 28 14.5 28Z" fill="currentColor"/>
</svg>
